HIERARCHY
ROOT joint_Root
{
	OFFSET 0.0 0.0 0.0
	CHANNELS 6 Xposition Yposition Zposition Zrotation Xrotation Yrotation 
	JOINT Hips
	{
		OFFSET 4.5925 91.4895 -427.239
		CHANNELS 6 Xposition Yposition Zposition Zrotation Xrotation Yrotation 
		JOINT Spine
		{
			OFFSET 15.7357 0.0 0.0
			CHANNELS 6 Xposition Yposition Zposition Zrotation Xrotation Yrotation 
			JOINT Chest
			{
				OFFSET 8.98455 -0.406207 0.0
				CHANNELS 6 Xposition Yposition Zposition Zrotation Xrotation Yrotation 
				JOINT Neck
				{
					OFFSET 16.3773 0.0 0.0
					CHANNELS 6 Xposition Yposition Zposition Zrotation Xrotation Yrotation 
					JOINT Head
					{
						OFFSET 6.45672 0.0 0.0
						CHANNELS 6 Xposition Yposition Zposition Zrotation Xrotation Yrotation 
						End Site
						{
							OFFSET 0.0 0.0 0.0
						}
					}
				}
				JOINT Shoulder_L
				{
					OFFSET 12.9942 -0.242716 4.98039
					CHANNELS 6 Xposition Yposition Zposition Zrotation Xrotation Yrotation 
					JOINT UpperArm_L
					{
						OFFSET 5.34809 0.0 0.0
						CHANNELS 6 Xposition Yposition Zposition Zrotation Xrotation Yrotation 
						JOINT LowerArm_L
						{
							OFFSET 24.3286 1.87007e-05 0.0
							CHANNELS 6 Xposition Yposition Zposition Zrotation Xrotation Yrotation 
							JOINT Hand_L
							{
								OFFSET 22.2916 0.0 0.0
								CHANNELS 6 Xposition Yposition Zposition Zrotation Xrotation Yrotation 
								End Site
								{
									OFFSET 0.0 0.0 0.0
								}
							}
						}
					}
				}
				JOINT Shoulder_R
				{
					OFFSET 12.9945 -0.242716 -4.98039
					CHANNELS 6 Xposition Yposition Zposition Zrotation Xrotation Yrotation 
					JOINT UpperArm_R
					{
						OFFSET -5.34813 0.0 0.0
						CHANNELS 6 Xposition Yposition Zposition Zrotation Xrotation Yrotation 
						JOINT LowerArm_R
						{
							OFFSET -24.3289 0.000322201 0.0
							CHANNELS 6 Xposition Yposition Zposition Zrotation Xrotation Yrotation 
							JOINT Hand_R
							{
								OFFSET -22.2915 -0.000108084 0.0
								CHANNELS 6 Xposition Yposition Zposition Zrotation Xrotation Yrotation 
								End Site
								{
									OFFSET 0.0 0.0 0.0
								}
							}
						}
					}
				}
			}
		}
		JOINT UpperLeg_L
		{
			OFFSET -2.19248 -6.46944 0.0
			CHANNELS 6 Xposition Yposition Zposition Zrotation Xrotation Yrotation 
			JOINT LowerLeg_L
			{
				OFFSET 39.0811 0.0 -1.23785e-05
				CHANNELS 6 Xposition Yposition Zposition Zrotation Xrotation Yrotation 
				JOINT Foot_L
				{
					OFFSET 40.9854 0.0 -1.26872e-05
					CHANNELS 6 Xposition Yposition Zposition Zrotation Xrotation Yrotation 
					JOINT Toes_L
					{
						OFFSET 11.7543 0.0 0.0
						CHANNELS 6 Xposition Yposition Zposition Zrotation Xrotation Yrotation 
						End Site
						{
							OFFSET 0.0 0.0 0.0
						}
					}
				}
			}
		}
		JOINT UpperLeg_R
		{
			OFFSET -2.19251 6.46944 0.0
			CHANNELS 6 Xposition Yposition Zposition Zrotation Xrotation Yrotation 
			JOINT LowerLeg_R
			{
				OFFSET -39.0811 -0.00228153 -0.0401928
				CHANNELS 6 Xposition Yposition Zposition Zrotation Xrotation Yrotation 
				JOINT Foot_R
				{
					OFFSET -40.9854 0.0 0.0
					CHANNELS 6 Xposition Yposition Zposition Zrotation Xrotation Yrotation 
					JOINT Toes_R
					{
						OFFSET -11.7543 0.0 0.0
						CHANNELS 6 Xposition Yposition Zposition Zrotation Xrotation Yrotation 
						End Site
						{
							OFFSET 0.0 0.0 0.0
						}
					}
				}
			}
		}
	}
}
MOTION
Frames:	6
Frame Time:	0.0333333
0.000000 0.000000 0.000000 0.000000 0.000000 -0.000000 -0.415730 89.763900 -0.710239 88.930300 -4.013830 15.267600 15.735700 0.000005 -0.000001 89.145800 77.823300 -89.608300 8.984550 -0.406207 -0.000000 16.583400 -0.392814 -0.869028 16.377300 -0.000001 -0.000001 6.284710 -4.374940 2.325120 6.456720 -0.000001 -0.000000 -3.086310 -3.902420 1.478650 12.994200 -0.242716 4.980390 -91.463300 6.946820 -78.073900 5.348090 -0.000007 -0.000001 -62.865400 28.405600 -22.623000 24.328600 0.000019 0.000005 9.694010 23.194600 -23.448000 22.291600 -0.000001 0.000005 11.593400 5.211800 2.419770 12.994500 -0.242716 -4.980390 89.047300 11.614000 -85.278100 -5.348130 -0.000001 -0.000004 -62.461000 28.225600 -18.694800 -24.328900 0.000322 -0.000009 3.164360 7.559010 -22.802400 -22.291500 -0.000108 -0.000004 15.936300 5.396890 -2.836410 -2.192480 -6.469440 -0.000000 -174.032000 -9.964720 1.948160 39.081100 -0.000007 -0.000012 -0.239480 0.325790 36.319100 40.985400 -0.000006 -0.000013 0.446269 3.713660 -72.829100 11.754300 -0.000000 0.000003 -0.000128 -0.001273 -16.626100 -2.192510 6.469440 -0.000001 173.074000 18.683600 -176.582000 -39.081100 -0.002282 -0.040193 -0.275567 0.395853 35.163100 -40.985400 0.000008 0.000006 3.393280 12.312900 -72.616500 -11.754300 -0.000006 -0.000006 -0.002680 -0.036923 -18.074600
0.000000 0.000000 0.000000 0.000000 0.000000 -0.000000 -0.404081 89.772300 -0.686164 88.922900 -4.000750 15.184300 15.735700 0.000005 -0.000001 89.142100 77.855000 -89.602200 8.984550 -0.406207 -0.000000 16.520100 -0.393012 -0.864301 16.377300 -0.000001 -0.000001 6.322110 -4.374700 2.353280 6.456720 -0.000001 -0.000000 -3.046720 -3.880750 1.499300 12.994200 -0.242716 4.980390 -91.471400 6.885560 -77.906900 5.348090 -0.000007 -0.000001 -64.479400 25.472600 -21.688100 24.328600 0.000019 0.000005 9.579240 21.261900 -24.958000 22.291600 -0.000001 0.000005 12.274700 5.197640 2.778390 12.994500 -0.242716 -4.980390 89.007900 11.670400 -85.106900 -5.348130 -0.000001 -0.000004 -63.143000 25.889500 -18.076200 -24.328900 0.000322 -0.000009 3.055110 6.641340 -24.786500 -22.291500 -0.000108 -0.000004 16.803300 5.397000 -2.840060 -2.192480 -6.469440 -0.000000 -174.041000 -9.971220 1.897530 39.081100 -0.000007 -0.000012 -0.242795 0.330757 36.281300 40.985400 -0.000006 -0.000013 0.454241 3.725290 -72.825500 11.754300 -0.000000 0.000003 -0.000130 -0.001284 -16.626500 -2.192510 6.469440 -0.000001 173.086000 18.722900 -176.619000 -39.081100 -0.002282 -0.040193 -0.275698 0.396786 35.112300 -40.985400 0.000008 0.000006 3.385190 12.330700 -72.608800 -11.754300 -0.000006 -0.000006 -0.002778 -0.038070 -18.121300
0.000000 0.000000 0.000000 0.000000 0.000000 -0.000000 -0.383495 89.779800 -0.670929 88.921100 -4.038330 15.112600 15.735700 0.000005 -0.000001 89.241400 77.896100 -89.697600 8.984550 -0.406207 -0.000000 16.438600 -0.349910 -0.862883 16.377300 -0.000001 -0.000001 6.428800 -4.383400 2.364400 6.456720 -0.000001 -0.000000 -2.995430 -3.894970 1.502680 12.994200 -0.242716 4.980390 -91.484600 6.853130 -77.745800 5.348090 -0.000007 -0.000001 -65.360200 23.023900 -21.188400 24.328600 0.000019 0.000005 9.730910 19.745800 -26.912300 22.291600 -0.000001 0.000005 12.557100 5.187640 3.027290 12.994500 -0.242716 -4.980390 88.972800 11.642500 -84.922800 -5.348130 -0.000001 -0.000004 -63.617400 23.522500 -17.590400 -24.328900 0.000322 -0.000009 2.767790 5.393470 -27.228600 -22.291500 -0.000108 -0.000004 17.410000 5.399740 -2.929010 -2.192480 -6.469440 -0.000000 -174.059000 -10.006600 1.862250 39.081100 -0.000007 -0.000012 -0.239614 0.326856 36.245100 40.985400 -0.000006 -0.000013 0.464848 3.717440 -72.825700 11.754300 -0.000000 0.000003 -0.000135 -0.001331 -16.628300 -2.192510 6.469440 -0.000001 173.090000 18.715900 -176.673000 -39.081100 -0.002282 -0.040193 -0.276307 0.398201 35.075100 -40.985400 0.000008 0.000006 3.377960 12.388200 -72.590700 -11.754300 -0.000006 -0.000006 -0.002685 -0.036991 -18.077400
0.000000 0.000000 0.000000 0.000000 0.000000 -0.000000 -0.361148 89.788600 -0.664945 88.948800 -4.026570 15.021100 15.735700 0.000005 -0.000001 89.246200 77.943400 -89.713900 8.984550 -0.406207 -0.000000 16.344000 -0.347263 -0.886737 16.377300 -0.000001 -0.000001 6.494810 -4.397070 2.379540 6.456720 -0.000001 -0.000000 -2.860010 -3.886090 1.503080 12.994200 -0.242716 4.980390 -91.505400 6.870100 -77.608800 5.348090 -0.000007 -0.000001 -65.478800 21.005100 -21.227600 24.328600 0.000019 0.000005 10.589300 19.471000 -29.285600 22.291600 -0.000001 0.000005 12.971900 5.185100 3.089540 12.994500 -0.242716 -4.980390 88.936600 11.621100 -84.735400 -5.348130 -0.000001 -0.000004 -63.655700 21.339300 -17.402300 -24.328900 0.000322 -0.000009 2.919410 5.063120 -30.032500 -22.291500 -0.000108 -0.000004 17.958000 5.400630 -2.957820 -2.192480 -6.469440 -0.000000 -174.099000 -10.057300 1.787400 39.081100 -0.000007 -0.000012 -0.242268 0.331033 36.199100 40.985400 -0.000006 -0.000013 0.498937 3.782610 -72.800100 11.754300 -0.000000 0.000003 -0.000138 -0.001352 -16.629100 -2.192510 6.469440 -0.000001 173.064000 18.770100 -176.754000 -39.081100 -0.002282 -0.040193 -0.274942 0.396597 35.052000 -40.985400 0.000008 0.000006 3.368480 12.413800 -72.575000 -11.754300 -0.000006 -0.000006 -0.002687 -0.037006 -18.078000
0.000000 0.000000 0.000000 0.000000 0.000000 -0.000000 -0.336134 89.798800 -0.670111 88.959800 -4.010220 15.007000 15.735700 0.000005 -0.000001 89.200100 77.968700 -89.673900 8.984550 -0.406207 -0.000000 16.293100 -0.365940 -0.896472 16.377300 -0.000001 -0.000001 6.614130 -4.401080 2.377510 6.456720 -0.000001 -0.000000 -2.833580 -3.870170 1.482650 12.994200 -0.242716 4.980390 -91.524700 6.896100 -77.501100 5.348090 -0.000007 -0.000001 -65.089000 19.195800 -21.615900 24.328600 0.000019 0.000005 11.752100 19.556200 -31.860300 22.291600 -0.000001 0.000005 13.645200 5.178920 3.242170 12.994500 -0.242716 -4.980390 88.905600 11.572300 -84.560300 -5.348130 -0.000001 -0.000004 -63.348100 19.346300 -17.506000 -24.328900 0.000322 -0.000009 3.252010 5.012390 -33.043900 -22.291500 -0.000108 -0.000004 18.634500 5.397990 -2.872150 -2.192480 -6.469440 -0.000000 -174.113000 -10.131800 1.788090 39.081100 -0.000007 -0.000012 -0.240520 0.329173 36.155200 40.985400 -0.000006 -0.000013 0.537186 3.830820 -72.771900 11.754300 -0.000000 0.000003 -0.000143 -0.001397 -16.630700 -2.192510 6.469440 -0.000001 173.039000 18.754200 -176.755000 -39.081100 -0.002282 -0.040193 -0.274214 0.396181 35.009700 -40.985400 0.000008 0.000006 3.342320 12.429400 -72.542000 -11.754300 -0.000006 -0.000006 -0.002589 -0.035859 -18.031300
0.000000 0.000000 0.000000 0.000000 0.000000 -0.000000 -0.324106 89.802500 -0.674057 88.961100 -3.928970 14.962000 15.735700 0.000005 -0.000001 89.026400 78.008700 -89.500300 8.984550 -0.406207 -0.000000 16.211700 -0.436153 -0.886918 16.377300 -0.000001 -0.000001 6.695710 -4.406210 2.374880 6.456720 -0.000001 -0.000000 -2.735130 -3.833380 1.407780 12.994200 -0.242716 4.980390 -91.532400 6.902300 -77.450400 5.348090 -0.000007 -0.000001 -64.647200 17.047400 -22.208000 24.328600 0.000019 0.000005 12.843800 19.459800 -34.386400 22.291600 -0.000001 0.000005 14.070100 5.172070 3.410030 12.994500 -0.242716 -4.980390 88.887800 11.465800 -84.421900 -5.348130 -0.000001 -0.000004 -62.992700 17.169300 -17.848200 -24.328900 0.000322 -0.000009 3.795880 5.232320 -36.044000 -22.291500 -0.000108 -0.000004 19.267000 5.394010 -2.744080 -2.192480 -6.469440 -0.000000 -174.153000 -10.055200 1.735980 39.081100 -0.000007 -0.000012 -0.241290 0.330381 36.142600 40.985400 -0.000006 -0.000013 0.545304 3.833540 -72.762600 11.754300 -0.000000 0.000003 -0.000137 -0.001345 -16.628800 -2.192510 6.469440 -0.000001 173.019000 18.845600 -176.780000 -39.081100 -0.002282 -0.040193 -0.275335 0.398027 34.993100 -40.985400 0.000008 0.000006 3.322980 12.400500 -72.531100 -11.754300 -0.000006 -0.000006 -0.002808 -0.038415 -18.135300
